# xmcd
#
# Track frame offsets:
#	150
#	10517
#	23765
#	35950
#	50737
#	62685
#	76225
#	90457
#	104027
#	116605
#	129552
#	142517
#	155525
#	167830
#	181195
#	196252
#	206760
#	219542
#
# Disc length: 3112
#
# Revision: 1
# Processed by: cddbd v1.5.1PL0 Copyright (c) Steve Scherf et al.
# Submitted via: CDex 1.40Release
# Normalized: r0:DSETVAR1,TDELIM( - )
#
DISCID=f30c2612
DTITLE=Various Artist - Chess blues- vol2
DYEAR=1990
DGENRE=Blues
TTITLE0=Elmore James - Talk to me baby
TTITLE1=Little Walter - Last night
TTITLE2=Jimmy Rogers - Chicago bound
TTITLE3=Muddy Waters - Baby please don't go
TTITLE4=Buddy Guy - Ten years ago
TTITLE5=John Lee Hooker - It's my own fault
TTITLE6=Sonny Boy Williamson - Help me
TTITLE7=John Brim - You got me
TTITLE8=Bo Diddley - I'm a man
TTITLE9=Howlin' Wolf - Evil
TTITLE10=Lowell Fulson - Trouble trouble
TTITLE11=Jimmy Witherspoon - Time brings about a change
TTITLE12=Otis Spann - I'm in love with you babe
TTITLE13=Jimmy Rogers - The world's in a tangle
TTITLE14=Muddy Waters - She's 19 years old
TTITLE15=Sonny Boy Williamson - Let your conscience be your guide
TTITLE16=John Lee Hooker - Leave my wife alone
TTITLE17=Bo Diddley - Before you accuse me
EXTD=YEAR: 1990 ID3G: 0
EXTT0=
EXTT1=
EXTT2=
EXTT3=
EXTT4=
EXTT5=
EXTT6=
EXTT7=
EXTT8=
EXTT9=
EXTT10=
EXTT11=
EXTT12=
EXTT13=
EXTT14=
EXTT15=
EXTT16=
EXTT17=
PLAYORDER=
